<?xml version="1.0" encoding="UTF-8" standalone="no"?>
<svg width="152px" height="199px" viewBox="0 0 152 199" version="1.1" xmlns="http://www.w3.org/2000/svg" xmlns:xlink="http://www.w3.org/1999/xlink" xmlns:sketch="http://www.bohemiancoding.com/sketch/ns">
    <!-- Generator: Sketch 3.3.3 (12072) - http://www.bohemiancoding.com/sketch -->
    <title>TGJF_logo</title>
    <desc>Created with Sketch.</desc>
    <defs></defs>
    <g id="Page-1" stroke="none" stroke-width="1" fill="none" fill-rule="evenodd" sketch:type="MSPage">
        <g id="Acasa" sketch:type="MSArtboardGroup" transform="translate(-124.000000, -276.000000)" fill="#ffb302">
            <g id="TGJF_logo" sketch:type="MSLayerGroup" transform="translate(124.000000, 276.000000)">
                <path d="M151.682252,26.4428299 C151.601358,25.8059048 151.367225,25.1880612 151.119939,24.6070644 C150.838453,24.0352794 150.544472,23.4911296 150.224184,22.971983 C150.275482,23.0292273 150.170912,23.1456898 150.099225,23.0489667 C150.286005,22.7601133 149.782225,22.7844586 149.743422,22.5489016 C149.801955,22.5186345 149.88285,22.5824586 149.940725,22.6074618 C149.680943,22.0902892 149.201497,21.9185563 148.877262,21.4928429 C148.408339,21.2901849 148.041356,20.7802501 147.659246,20.7710384 C147.787493,20.6914227 147.4968,20.5887778 147.415905,20.4973185 C146.952901,20.6973446 146.52015,20.0262045 145.995982,20.1874097 L146.023604,20.1275335 C145.066685,19.9492208 144.065702,19.9505367 143.023942,20.178198 L142.787836,20.2689993 L142.556992,20.3709862 L141.924307,20.7651165 C141.362652,21.0375204 140.961469,20.716426 140.103859,20.8789472 C139.955224,20.9315856 140.075579,21.0098853 139.955882,21.0460742 C139.748056,21.0447582 139.955224,20.9315856 139.871699,20.8907908 C139.471174,21.051338 138.879265,20.9342175 138.33734,21.0717354 C138.288672,21.1447713 138.147272,21.2000416 138.218958,21.2717615 C138.053224,21.2493902 137.907877,21.2711035 137.755296,21.3118983 C137.667168,21.3283478 137.537606,21.3744064 137.390944,21.4250709 C137.106827,21.52311 136.807585,21.6329928 136.522153,21.6093055 C136.782593,21.8738136 136.255794,21.8547322 136.090717,21.9771165 C135.982858,21.9909341 135.95129,21.9132924 135.967074,21.8461784 C135.58628,21.9896182 135.374508,22.0606801 134.877962,22.1258201 C134.670136,22.229781 134.668821,22.4179634 134.391939,22.4600742 C134.15386,22.3120286 133.847383,22.6561524 133.564582,22.6883934 C133.700721,22.8344651 133.445543,23.1134488 133.166688,23.1529276 L133.128543,22.8739439 C132.406414,23.3812468 131.125918,23.8536768 130.586623,24.7912989 L130.42615,24.722211 C129.76387,25.5433706 128.939802,26.1638462 128.54125,27.078439 C128.30054,27.2291165 128.038785,27.4298006 127.838851,27.6271947 C127.685613,27.9706605 127.586961,28.0522501 127.582357,28.3786084 C127.504752,28.4852012 127.357432,28.45954 127.281142,28.460856 C126.955592,28.763527 126.50311,28.9510514 126.47483,29.3905823 L126.362368,29.3175465 C126.240698,29.6794358 126.065756,30.1827908 125.711926,30.4170318 C125.743494,30.5775791 125.55211,30.9256507 125.783612,30.8690644 C125.717187,31.0118462 125.538299,30.8210318 125.567895,31.0335595 L125.492262,30.7999765 C124.944417,31.5092794 124.633336,32.2093706 124.307129,33.0061849 C123.982894,33.1134358 123.942118,33.7378592 123.613938,34.116198 C123.603415,34.4267647 123.230513,34.8018136 123.408085,35.1117224 L123.279838,35.0709276 C123.108842,35.4117615 122.914828,35.8868234 122.676749,36.3296442 C122.538637,36.5888885 122.722786,36.6573185 122.710291,36.8948494 L122.580071,36.8626084 C122.572178,37.110009 122.721471,37.2396312 122.822096,37.3620156 C122.810257,37.3962305 122.798419,37.4304455 122.787239,37.4646605 C122.726075,37.5613836 122.751724,37.6199439 122.635315,37.7436442 C122.621504,37.5449341 122.537322,37.3501719 122.405129,37.1718592 C122.249917,37.447553 122.479446,37.8456312 122.226241,37.9640677 C122.100624,38.2042305 122.096021,38.4174162 122.264386,38.4832143 C122.22361,38.4141263 122.117066,38.6174423 122.080894,38.4555791 C122.033541,38.6345498 122.024992,38.7569341 122.059849,38.8826084 C122.07366,38.8497094 122.099967,38.8108885 122.105228,38.7746996 C122.197961,38.8852403 122.176915,39.029996 122.30582,39.0734227 C122.284116,39.1576442 122.264386,39.2372599 122.245313,39.3149016 C122.127589,39.299768 122.107201,39.0536833 122,39.16554 L122.170996,39.6307322 C122.044722,40.1886996 122.000658,40.5071621 122.000658,40.5071621 C122.000658,40.5071621 122.814203,39.2247582 124.36895,37.6363934 C123.82571,38.3970188 122.876025,38.961566 122.740544,39.8880025 C122.416309,40.5354553 122.780004,41.0236768 122.789869,41.0039374 C123.124627,40.3123999 123.652083,39.6682371 124.209793,39.1359309 C124.773421,38.5990188 125.42189,38.1259309 126.107189,37.6804781 C126.470884,37.27911 126.965457,36.7514097 127.416623,36.5145367 C128.230826,35.8427387 129.165385,35.326882 130.112439,34.8972208 C130.585308,34.6781133 131.064096,34.485983 131.538281,34.2991165 L132.263041,34.0175009 C132.536634,33.9082761 132.808254,33.7898397 133.055541,33.6720612 C132.920059,33.6490318 133.000296,33.5049341 133.095659,33.4351882 L133.143012,33.4812468 L133.258105,33.2917485 C133.408713,33.2213446 133.404767,33.4101849 133.281781,33.4805889 C134.103219,33.173312 134.803645,32.8752468 135.542215,32.7765498 C135.556684,32.5620481 135.91446,32.7068038 135.912487,32.4929602 C135.95129,32.5284911 135.919721,32.5423087 135.904595,32.5870514 C136.385356,32.4370318 136.425475,32.4370318 136.857568,32.7298332 C137.241651,32.801553 137.647437,32.90354 138.094657,33.0134227 C138.318925,33.0686931 138.555689,33.1252794 138.814813,33.1779178 C139.124579,33.240426 139.327801,33.2608234 139.534969,33.2989862 C139.953909,33.3693902 140.370218,33.4555856 140.783239,33.5602045 C140.990407,33.6121849 141.195602,33.6687713 141.40277,33.7312794 L141.721085,33.8293185 L141.900631,33.8865628 L142.028878,33.9240677 L142.163701,33.9563087 L142.213685,33.9655204 C142.217631,33.9661784 142.221577,33.9668364 142.225523,33.9674944 C142.6905,34.1280416 143.159424,34.24911 143.633608,34.3247778 C145.052874,34.5044064 146.536592,34.2431882 147.81643,33.5707322 C149.100215,32.904198 150.144605,31.8330058 150.827273,30.5598136 C150.747036,30.0235595 151.131777,29.5491556 150.99235,28.9819765 L151.079163,29.0405367 C151.062063,28.5963999 151.240951,28.5437615 151.458642,28.0180351 C151.345522,27.9969797 151.446147,27.8061654 151.250817,27.8614358 C151.101524,27.6653576 151.553348,27.5521849 151.477057,27.2712273 C151.540852,27.2626735 151.362622,27.2745172 151.421812,27.2185889 C151.173211,26.5211296 151.548744,27.3633446 151.682252,26.4428299 L151.682252,26.4428299 Z" id="Fill-10" sketch:type="MSShapeGroup"></path>
                <path d="M116.679344,15.0710423 L117.390292,14.7624495 C117.752672,14.6091401 118.120313,14.4689902 118.494531,14.3446319 C118.681968,14.2821238 118.870722,14.2235635 119.064736,14.1682932 L119.363979,14.0853876 L119.537606,14.038013 L119.663879,14.0005081 L119.793442,13.9531336 C119.794099,13.9531336 119.798703,13.9511596 119.798703,13.9511596 C120.129514,13.8741759 120.45901,13.7827166 120.781272,13.6642801 C122.136085,13.1234202 123.286361,12.1305277 124.049266,10.9191857 C124.817432,9.70586971 125.214011,8.27147231 125.178496,6.83115309 C124.870704,6.40149186 124.945679,5.80338762 124.564884,5.37241042 L124.668797,5.38228013 C124.428087,5.00591531 124.578695,4.86444951 124.497143,4.3058241 C124.387969,4.34267101 124.389284,4.12356352 124.242623,4.26831922 C124.030193,4.16370033 124.362977,3.84786971 124.151206,3.6425798 C124.203162,3.60375896 124.052554,3.70114007 124.078861,3.62284039 C123.537594,3.12277524 124.265641,3.68600651 123.92628,2.81484039 C123.740158,2.55033225 123.497475,2.33188274 123.275181,2.09895765 C123.02921,1.87063844 122.760878,1.66469055 122.482681,1.47979805 C121.921025,1.11330293 121.324512,0.85076873 120.762857,0.615211726 C120.838489,0.629029316 120.823363,0.784312704 120.70827,0.751413681 C120.684593,0.417159609 120.297879,0.718514658 120.132145,0.557967427 C120.16174,0.499407166 120.263023,0.501381107 120.322871,0.486905537 C119.819749,0.236872964 119.357402,0.361889251 118.898344,0.174364821 C118.424817,0.253322476 117.884865,-0.0328990228 117.556684,0.138175896 C117.631659,0.0111856678 117.33702,0.0559283388 117.227188,0 C116.911504,0.386892508 116.238701,-0.0263192182 115.828968,0.338859935 L115.82831,0.273061889 C115.160111,0.4612443 114.449163,0.747465798 113.832263,1.20805212 C113.673763,1.31727687 113.532362,1.447557 113.388331,1.57388925 L113.054889,1.89827362 C112.838513,2.11672313 112.629372,2.34241042 112.432727,2.57730945 C112.313688,2.69969381 112.174918,2.80826059 112.026941,2.9122215 C111.958542,2.95762215 111.796096,3.09250814 111.698103,3.198443 C111.583667,3.31819544 111.506719,3.4103127 111.429113,3.50440391 C111.139078,3.86760912 110.942432,4.17159609 110.847069,4.47821498 C110.82997,4.59862541 110.945063,4.56901629 110.924675,4.66179153 C110.835889,4.77825407 110.830627,4.59665147 110.762887,4.6190228 C110.758283,4.69337459 110.724741,4.7670684 110.69975,4.80325733 C110.684623,4.82957655 110.660947,4.84405212 110.630036,4.84997394 C110.555719,4.87037134 110.585972,4.80588925 110.246611,4.93287948 C110.201889,5.01052117 110.02037,5.1105342 110.119679,5.16251466 C109.911196,5.1881759 109.667198,5.29805863 109.450165,5.48887296 C109.393604,5.53887948 109.318629,5.61388925 109.283772,5.65402606 L109.213401,5.74219544 L109.047009,5.97512052 C108.83721,6.295557 108.689233,6.61138762 108.462992,6.82128339 C108.838525,6.80483388 108.445235,7.20291205 108.426162,7.40951792 C108.363683,7.5009772 108.284762,7.47202606 108.245301,7.41412378 C108.094036,7.79772638 108.009853,8.00170033 107.727052,8.38530293 C107.666546,8.59651466 107.798081,8.72284691 107.642212,8.93208469 C107.375853,8.97748534 107.40216,9.39793485 107.216695,9.56900977 C107.411368,9.60717264 107.403475,9.94274267 107.199596,10.1250033 L107.006897,9.92366124 C106.758295,10.6994202 105.870432,11.5659805 105.70404,12.6088795 L105.530413,12.6009837 C105.223278,13.5853225 104.62545,14.4841238 104.66228,15.554658 C104.507726,15.7967948 104.369614,16.2086906 104.317658,16.4580651 C104.376191,16.8291661 104.338046,16.9515505 104.511672,17.2272443 C104.504438,17.3588404 104.366983,17.4180586 104.303847,17.4595114 C104.19533,17.8911466 103.918448,18.2944886 104.134166,18.6787492 L104,18.6787492 C104.094705,19.0485342 104.221637,19.5657068 104.052614,19.9545733 C104.166392,20.0716938 104.195988,20.467798 104.358434,20.2940912 C104.380795,20.4500326 104.127589,20.3875244 104.267674,20.5500456 L104.076948,20.3954202 C104.003288,21.2876417 104.123643,22.0443192 104.283459,22.8898241 C104.069714,23.1569642 104.375533,23.70243 104.30582,24.1978893 C104.466293,24.4637134 104.357118,24.981544 104.674776,25.1447231 L104.545871,25.1802541 C104.587963,25.5592508 104.683326,26.0632638 104.724102,26.563987 C104.749751,26.8561303 104.941135,26.8140195 105.060174,27.0199674 L104.933243,27.0633941 C105.06149,27.2752638 105.258135,27.302241 105.408743,27.3509316 C105.41795,27.3851466 105.4265,27.4154137 105.43505,27.4489707 C105.434392,27.5680651 105.489637,27.6022801 105.459384,27.7720391 C105.339029,27.6134658 105.162114,27.4956873 104.954946,27.4180456 C104.974676,27.7338762 105.383751,27.942456 105.235774,28.179329 C105.260766,28.449101 105.373228,28.6307036 105.550143,28.5938567 C105.477799,28.5583257 105.499502,28.786645 105.38112,28.6708404 C105.438996,28.8465212 105.497529,28.953772 105.595523,29.0399674 C105.589604,29.0044365 105.590919,28.9583779 105.575135,28.9248208 C105.713905,28.9669316 105.774411,29.1011596 105.908577,29.0656287 C105.934226,29.1432704 105.961849,29.2294658 105.98684,29.3011857 C105.879639,29.3531661 105.728374,29.1577459 105.699436,29.3097394 L106.097988,29.6091205 C106.29266,30.1355049 106.430114,30.434228 106.430114,30.434228 C106.430114,30.434228 106.408411,28.9123192 106.853658,26.7192704 C106.818801,27.6582085 106.320282,28.6563648 106.713573,29.5123974 C106.793809,30.232228 107.364673,30.4434397 107.362042,30.4210684 C107.267336,29.659127 107.358753,28.8320456 107.536326,28.0819479 C107.717187,27.3259283 108.003934,26.5758306 108.336061,25.8290228 C108.422874,25.2947427 108.550463,24.5828078 108.799723,24.138671 C109.116723,23.1319609 109.619845,22.1910489 110.179528,21.3146189 C110.457067,20.873772 110.754337,20.4520065 111.049634,20.0368208 L111.504746,19.4064756 C111.67048,19.1702606 111.844764,18.9057524 111.98748,18.6655896 C111.859891,18.7248078 111.849368,18.5570228 111.890802,18.4438502 L111.956569,18.4550358 L111.94802,18.2293485 C112.035491,18.0819609 112.13743,18.2431661 112.072978,18.3734463 C112.597804,17.6345342 113.004906,16.9548404 113.551435,16.3494984 C113.426476,16.1744756 113.812532,16.0224821 113.669159,15.8606189 C113.724404,15.8593029 113.707962,15.891544 113.725061,15.9362866 C114.011151,15.4585928 114.049953,15.4145081 114.563599,15.3033094 C114.65107,15.2408013 114.737883,15.1782932 114.822066,15.1282866 C114.858238,15.1065733 114.919402,15.0644625 114.933213,15.0578827 L114.956889,15.0545928 C114.971358,15.0565668 114.983196,15.0638046 114.991088,15.0697264 C114.935186,15.0657785 115.139723,15.1045993 115.416605,15.1526319 C115.844752,15.2204039 116.279476,15.2263257 116.679344,15.0710423 L116.679344,15.0710423 Z" id="Fill-16" sketch:type="MSShapeGroup"></path>
                <path d="M120.673547,81.9754528 C120.592653,81.1562671 120.44336,80.3456352 120.33024,79.5297394 L120.14609,78.3078697 L119.898146,77.0971857 C120.105972,78.4749967 119.710709,77.051127 119.412781,75.7417459 L119.404889,75.40157 C119.404889,75.40157 119.279273,74.9015049 119.104331,74.4145993 C118.94057,73.9250619 118.777466,73.4361824 118.777466,73.4361824 C118.266451,71.5418567 118.645931,72.2939283 119.087889,73.8928208 C117.804105,68.8118958 115.941565,64.1672117 113.596291,59.8370423 C111.255621,55.5009511 108.380259,51.5017459 104.958369,47.7367818 C104.805788,47.6479544 104.503257,47.3610749 104.129039,46.9794463 C103.944232,46.786658 103.739037,46.5728143 103.524634,46.348443 C103.301024,46.1332834 103.067549,45.9089121 102.836047,45.6858567 C101.906093,44.799557 101.019545,43.923785 100.797908,43.9047036 C100.467754,43.5651857 100.809746,43.8494332 101.053086,44.0047166 C99.6936691,42.8743062 98.6867665,41.9676091 97.7601004,41.3023909 C96.8479032,40.6207231 96.1415587,40.0245928 95.3911499,39.5205798 C94.6492909,39.0047231 93.9508385,38.4605733 93.0767866,37.8591792 C92.634828,37.5644039 92.1566972,37.2446254 91.6213486,36.887342 C91.0892884,36.5234788 90.496722,36.1247427 89.7969542,35.7233746 C86.8170224,33.9961759 83.6654369,32.6078371 80.4513723,31.4530814 C79.6404572,31.1839674 78.8472995,30.860899 78.0238886,30.6371857 L75.5654941,29.9318306 C74.7420832,29.7140391 73.9068342,29.5462541 73.0788196,29.3528078 C72.6631681,29.2626645 72.2508049,29.1560717 71.8331804,29.0810619 L70.5757031,28.8705081 C69.736508,28.7441759 68.905205,28.5599414 68.0594331,28.4842736 L65.5313249,28.2105537 C64.6881837,28.1283062 63.8404388,28.1138306 62.9959823,28.0625081 L61.7286398,28 L60.4612974,28.0072378 C57.0775522,27.9559153 53.7115642,28.3151726 50.3843792,28.8119479 C43.744478,29.9213029 37.2637346,32.072899 31.3249165,35.270684 C25.3933328,38.4842606 20.0319546,42.7407362 15.4446616,47.7440195 C6.15169369,57.8907362 0.789657811,71.3089316 0.0964668606,84.9396547 L0.0188610427,86.2200847 C0.00307680852,86.647114 0.011626602,87.0754593 0.00702286706,87.5031466 C0.00833821991,88.3585212 -0.0107343964,89.2145537 0.00899589633,90.0705863 C0.103701301,91.7813355 0.159603797,93.4953746 0.389790545,95.198886 C0.53974077,96.9102932 0.88173251,98.598013 1.16913711,100.293629 C1.55124711,101.972137 1.90705005,103.658541 2.42266837,105.30744 C4.33058767,111.944489 7.47559633,118.253205 11.5788395,123.936182 C12.2707151,124.760632 13.0533501,125.636404 13.8307236,126.591792 C14.6587382,127.505068 15.5077985,128.481511 16.4147343,129.436241 C17.3552116,130.359388 18.258859,131.354254 19.2756267,132.212261 C19.7748031,132.649818 20.2713488,133.085401 20.7619754,133.51572 C21.2697016,133.925642 21.789266,134.309902 22.2943615,134.688899 L21.9813075,134.557961 C25.4222706,137.15172 26.1720217,137.989987 30.819821,140.892997 C30.9118957,140.847596 32.6790722,141.872072 32.0792713,141.337792 C32.9592424,141.699681 33.6787404,142.159609 34.5021513,142.6577 C35.3433194,143.115655 36.2726162,143.648619 37.5458778,144.147368 C37.6136184,144.242775 37.5327242,144.020378 38.0476849,144.282912 C41.3761852,145.462013 41.0749694,145.295544 40.9493532,145.359368 C40.8895047,145.381081 40.8802972,145.433062 41.4176189,145.663355 C41.6859508,145.778502 42.0910795,145.937733 42.6948265,146.160788 C43.2939697,146.400293 44.1094885,146.643088 45.1926815,146.945101 C51.2650079,148.544651 57.6688033,149.022345 63.9298828,148.66243 C67.0630533,148.451876 70.1607093,147.995896 73.1761557,147.329362 C76.185683,146.675987 79.1373348,145.747577 81.9258828,144.76258 C81.2346649,145.01656 80.860447,144.987609 81.986389,144.585583 C82.5072688,144.545446 83.2958228,144.266463 84.185659,143.917075 C85.1313977,143.547948 85.8331384,143.230801 87.5463855,142.631381 C87.5483585,142.206984 87.555593,141.79772 87.5707195,141.399642 C87.6049187,141.541107 87.626622,142.077362 87.6437216,142.700469 C87.1570411,142.886678 86.6197194,143.093283 86.2290596,143.242645 C86.7381012,143.069596 87.2418813,142.898521 87.7022548,142.741922 C87.7114623,141.248306 87.7200121,139.809303 87.7292196,138.401225 C87.7233005,137.218176 87.7180391,136.060788 87.7127777,134.90998 C87.6996241,132.661003 87.6930474,130.435055 87.7548689,128.086723 C87.6193876,123.230827 87.8975847,117.551798 87.736454,114.292163 C87.8600972,115.067922 87.827871,112.128723 87.8890349,111.087798 C87.7969602,110.208736 87.758815,109.178339 87.7489499,108.059114 C87.7509229,107.499173 87.7522382,106.91686 87.7542113,106.320072 C87.7528959,105.710124 87.7923565,105.149524 87.7522382,104.436274 C87.7048855,103.070306 87.3911739,101.672098 86.8216261,100.423251 C86.2586551,99.170456 85.4253791,98.092684 84.5171279,97.2833681 L84.6808893,97.3557459 C83.397105,96.0582085 81.781194,95.0403127 79.9811336,94.5297199 C78.185677,94.0072834 76.2632888,93.9250358 74.4053529,94.3448274 C73.4747408,94.5527492 72.5829315,94.9106906 71.7325559,95.3475896 C70.9019106,95.8200195 70.1120412,96.3707492 69.4195079,97.0339935 C68.0383874,98.3578502 66.9841321,100.029779 66.4185304,101.867518 C66.2534536,102.320208 66.1771632,102.797902 66.0660159,103.265726 C66.006825,103.742762 65.9140926,104.217166 65.9101465,104.699466 C65.8805511,105.198873 65.8831818,105.632482 65.8858125,106.062801 L65.8884432,107.368893 C65.8943623,109.109909 65.8996237,110.852899 65.9055428,112.592599 C65.9338229,116.073316 65.962103,119.544163 65.9903831,122.978163 L65.9903831,125.919336 C65.9870947,126.148971 65.9838063,126.379922 65.9805179,126.612189 C65.9515802,126.660879 65.8450366,126.643772 65.7818996,126.660879 L65.4320158,126.702332 C63.4655633,126.943153 61.4425506,127.044482 59.4017807,126.934599 C57.360353,126.862221 55.3037989,126.626664 53.2768401,126.220691 C51.2505391,125.819322 49.2360762,125.310046 47.2919847,124.619824 C45.8615385,124.136208 46.953939,124.634958 45.7984015,124.209902 C43.8793017,123.407166 45.8687729,124.119101 45.1334907,123.769055 C43.244644,123.01501 41.1473139,121.904997 39.0986518,120.494945 C37.0460437,119.090814 35.0480227,117.391909 33.2558544,115.585752 C32.7704892,115.221231 31.8135701,114.158593 32.0694062,114.578384 C30.2456695,112.410339 28.2068725,109.736306 26.6008267,106.765524 C25.766893,105.298228 25.0842249,103.746052 24.4791626,102.229407 C23.9194799,100.694997 23.4387185,99.1895375 23.157233,97.7617199 C23.2453616,98.7835635 22.9901832,97.9663518 22.6679217,96.6345993 C22.3765711,95.2969251 22.1095544,93.4374723 21.988542,92.4241824 C21.9063324,91.2786384 21.9773615,91.1358567 22.0668055,91.4694528 C21.9083054,89.5540717 21.9208013,88.0249251 21.9898573,86.4852508 C22.0871934,85.5180195 22.1858449,84.5409186 22.2956769,83.4447231 C22.4508885,82.3557655 22.7475006,81.1687687 23.0289861,79.7527948 C23.3163907,78.5901433 23.5044861,77.8505733 23.6886355,77.0438893 C23.8458202,76.2279935 24.1680816,75.3989381 24.7264489,74.0606059 C24.9586087,73.6697655 25.1559116,73.0992964 25.4919843,72.4906645 C25.8175341,71.8780847 26.1707063,71.1766775 26.5344014,70.4436873 C26.8671857,69.6929316 27.3492625,68.9888925 27.7747791,68.2841954 C27.9931277,67.9354658 28.2088456,67.592658 28.4160136,67.2616938 C28.618578,66.9280977 28.8310075,66.6175309 29.0638249,66.3497329 C28.7685282,66.5800261 29.1381424,65.9549446 29.8089723,64.9890293 C29.9793105,64.7495244 30.1654329,64.4869902 30.3614205,64.2106384 C30.462045,64.0731205 30.5646425,63.9323127 30.6692131,63.7895309 C30.7875948,63.6572769 30.9079496,63.5223909 31.0289621,63.3868469 C31.5176157,62.844671 32.035207,62.2867036 32.529122,61.7767687 L32.1358315,62.6051661 C35.0999791,59.2224886 39.5221954,55.7569055 44.7191545,53.4144951 C47.3472295,52.3327752 50.0792174,51.3385668 52.8776305,50.8227101 C53.5747675,50.6819023 54.2686162,50.5424104 54.9572034,50.4035765 C55.6563134,50.3265928 56.3501621,50.2509251 57.0380916,50.1759153 C58.4119776,49.9883909 59.7740255,49.9245668 61.0992435,49.9035114 L61.8831938,50.085772 C67.3307276,50.1923648 72.6934212,51.5701759 77.4970898,53.9389055 C82.3132542,56.3010554 86.5684207,59.6389902 90.0810705,63.5763453 C90.9636722,64.697544 92.0679109,66.1839218 93.0360106,67.7518893 C93.9968759,69.3224886 94.8755316,70.9351987 95.4477101,72.2116808 C96.3283388,73.9138762 96.7906853,75.1357459 97.2037061,76.2089121 C97.4240277,76.7418762 97.5812124,77.255759 97.7712809,77.7814853 C97.866644,78.0446775 97.9633224,78.3131336 98.0646046,78.5927752 C98.1553639,78.8763648 98.2500693,79.171798 98.3500361,79.4856547 C98.7255694,80.8838632 98.697947,81.7859544 98.7623992,82.3360261 C99.1346441,84.7337068 99.1852852,87.085987 99.1556897,89.3533876 C99.1274097,91.6365798 99.1346441,93.7987036 99.2602603,95.770013 L99.126752,95.9213485 C99.262891,99.8198827 99.4266524,105.469303 99.2760445,109.867902 C99.3944263,111.094378 99.4404636,115.494951 99.5963329,113.50127 C99.624613,115.237023 99.3700923,114.616547 99.512808,116.386515 L99.3187935,114.725772 C99.2944595,119.665889 99.3069553,124.221088 99.3385238,128.73286 C99.3589118,130.988417 99.3779844,133.233446 99.3983723,135.510717 C99.4279678,137.797857 99.4582209,140.075127 99.2069885,142.424775 C98.9485217,143.774951 98.5992955,145.995635 97.9245195,148.479511 C97.2556626,150.962072 96.2139031,153.690717 94.9090731,156.021283 C94.2290357,157.431993 93.1399235,159.289472 91.9166454,160.92916 C90.70389,162.574769 89.4595662,164.068384 88.7354645,164.996137 L88.5302694,165.019166 C87.0702278,166.523967 85.2307068,168.176156 83.0893124,169.694775 C80.9525217,171.217342 78.5178036,172.602391 75.9923261,173.674241 C74.5132118,174.290111 73.7746412,174.597388 73.1130187,174.873081 C72.4566577,175.169831 71.8719833,175.415257 70.6631741,175.794912 L70.4842861,175.707401 C69.1452569,176.08245 68.301458,176.351564 67.6589082,176.535798 C67.1110637,176.706215 66.7190885,176.855577 66.2981756,176.974671 C65.8937046,177.035863 65.4866029,177.089818 65.0781859,177.138508 C64.9716423,177.149036 64.8697024,177.159564 64.7736817,177.170091 C64.4145904,177.1997 64.1153476,177.224704 63.8167625,177.249049 C63.2195923,177.303003 62.6217644,177.360906 61.5451481,177.335244 C63.6299824,177.223388 65.3747979,176.832547 66.7033043,176.454866 C65.0235987,176.677264 63.3412624,176.936508 61.8003266,177.021388 C61.4155859,177.045733 61.0407103,177.068762 60.6789883,177.091134 C60.3027974,177.124033 59.9391023,177.131928 59.5951375,177.173381 C58.9045773,177.253655 58.2870191,177.370117 57.7444361,177.466182 C56.2600604,177.869524 55.0578279,178.566984 54.2758506,179.188117 C53.8792717,179.494736 53.5879211,179.785564 53.3945642,180.013225 C53.2413256,180.177062 53.1492509,180.309316 53.1130787,180.394195 C53.0334999,180.456046 52.842116,180.640938 52.6803276,180.791616 C52.5455039,180.91071 52.4488255,181.020593 52.437645,181.008091 C52.4284375,180.997564 52.4685558,180.92387 52.5849645,180.773192 C51.3005225,182.310893 50.7881925,183.631459 50.5586635,184.857935 C50.6619187,184.455251 50.8368606,183.920971 51.0177216,183.509733 C50.8730328,184.033485 50.6540266,184.815824 50.5994394,185.429062 C50.5323564,185.904124 50.5481406,186.259433 50.6106199,186.291016 C50.5192029,187.226007 50.5560328,188.135993 50.709929,189.007818 C50.6678378,189.080853 50.5560328,188.630137 50.4560659,188.208371 C50.3843792,187.665537 50.3219,187.187186 50.3120348,188.059668 C50.3120348,188.060326 50.3107195,188.158365 50.3475493,188.326808 C50.3824062,188.494593 50.4310742,188.734756 50.4909228,189.022293 C50.6178543,189.592762 50.8579062,190.338254 51.1920059,191.033739 C51.4419229,191.569993 51.7490578,192.070059 52.0358047,192.479322 C53.7753589,195.284293 56.8723571,197.159537 60.4146023,197.159537 C67.9502588,197.159537 75.1597078,195.740932 81.7943475,193.16099 C80.8657084,193.524853 79.937727,193.872267 79.0130339,194.180202 C78.6703845,194.299954 78.3297081,194.419707 77.9903471,194.538801 C77.6463823,194.642104 77.3043906,194.745407 76.9643719,194.847394 C76.2830191,195.04742 75.6167929,195.27245 74.9485936,195.452078 C73.6075914,195.79357 72.3145996,196.173225 71.0446264,196.434443 C67.0591073,197.212176 64.3869679,197.516821 62.7276503,197.739218 C61.0663597,197.936612 60.4146023,198.092554 60.4146023,198.092554 C70.3639313,197.945824 79.6910983,195.592228 88.008732,191.328515 C90.1021161,190.286932 92.1001371,189.0723 94.0711933,187.807003 C96.002789,186.482489 97.9159697,185.111257 99.7094533,183.567635 C103.329962,180.524476 106.664381,177.033231 109.573942,173.057713 C111.497646,170.348808 113.457521,167.035876 115.04581,163.617668 C116.644621,160.204723 117.889603,156.706241 118.706437,153.759805 C119.530505,150.648873 120.138198,147.478723 120.486767,144.2737 C120.821524,141.071967 120.853093,137.811016 120.85375,134.677055 C120.891238,128.351231 120.928725,122.012906 120.966213,115.65813 C120.995151,109.303355 121.024746,102.93213 121.053684,96.5398502 C121.055657,94.9416156 121.05763,93.3420651 121.059603,91.7411987 C121.056315,90.1370423 121.078018,88.5532834 121.007647,86.8945147 C120.996466,85.2508795 120.820866,83.6138241 120.673547,81.9754528 L120.673547,81.9754528 Z" id="Fill-2" sketch:type="MSShapeGroup"></path>
            </g>
        </g>
    </g>
</svg>
